<svg width="12" height="13" viewBox="0 0 12 13" fill="none" xmlns="http://www.w3.org/2000/svg">
<g id="Icon/Add">
<path id="Union" fill-rule="evenodd" clip-rule="evenodd" d="M6.75 3C6.75 2.58579 6.41421 2.25 6 2.25C5.58579 2.25 5.25 2.58579 5.25 3V5.75H2.5C2.08579 5.75 1.75 6.08579 1.75 6.5C1.75 6.91421 2.08579 7.25 2.5 7.25H5.25V10C5.25 10.4142 5.58579 10.75 6 10.75C6.41421 10.75 6.75 10.4142 6.75 10V7.25H9.5C9.91421 7.25 10.25 6.91421 10.25 6.5C10.25 6.08579 9.91421 5.75 9.5 5.75H6.75V3Z" fill="#D13303"/>
</g>
</svg>
