<svg width="20" height="20" viewBox="0 0 20 20" fill="none" xmlns="http://www.w3.org/2000/svg">
<g id="icon / calendar" clip-path="url(#clip0_243_19905)">
<path id="icon" fill-rule="evenodd" clip-rule="evenodd" d="M6.66699 0.833374C7.12723 0.833374 7.50033 1.20647 7.50033 1.66671V2.50004H12.5003V1.66671C12.5003 1.20647 12.8734 0.833374 13.3337 0.833374C13.7939 0.833374 14.167 1.20647 14.167 1.66671V2.50004H15.0003C16.8413 2.50004 18.3337 3.99242 18.3337 5.83337V15C18.3337 16.841 16.8413 18.3334 15.0003 18.3334H5.00033C3.15938 18.3334 1.66699 16.841 1.66699 15V5.83337C1.66699 3.99242 3.15938 2.50004 5.00033 2.50004H5.83366V1.66671C5.83366 1.20647 6.20676 0.833374 6.66699 0.833374ZM12.5003 4.16671C12.5003 4.62694 12.8734 5.00004 13.3337 5.00004C13.7939 5.00004 14.167 4.62694 14.167 4.16671H15.0003C15.9208 4.16671 16.667 4.9129 16.667 5.83337V6.25004H3.33366V5.83337C3.33366 4.9129 4.07985 4.16671 5.00033 4.16671H5.83366C5.83366 4.62694 6.20676 5.00004 6.66699 5.00004C7.12723 5.00004 7.50033 4.62694 7.50033 4.16671H12.5003ZM16.667 7.91671H3.33366V15C3.33366 15.9205 4.07985 16.6667 5.00033 16.6667H15.0003C15.9208 16.6667 16.667 15.9205 16.667 15V7.91671Z" fill="#8E8B8A"/>
</g>
<defs>
<clipPath id="clip0_243_19905">
<rect width="20" height="20" fill="white"/>
</clipPath>
</defs>
</svg>
