<svg width="16" height="17" viewBox="0 0 16 17" fill="none" xmlns="http://www.w3.org/2000/svg">
<g id="vuesax/linear/dollar-square">
<g id="dollar-square">
<path id="Vector" d="M5.78125 10.0532C5.78125 10.9132 6.44125 11.6065 7.26125 11.6065H8.93458C9.64792 11.6065 10.2279 10.9999 10.2279 10.2532C10.2279 9.43986 9.87458 9.15319 9.34792 8.96652L6.66125 8.03319C6.13458 7.84652 5.78125 7.55986 5.78125 6.74652C5.78125 5.99986 6.36125 5.39319 7.07458 5.39319H8.74792C9.56792 5.39319 10.2279 6.08652 10.2279 6.94652" stroke="white" stroke-width="1.5" stroke-linecap="round" stroke-linejoin="round"/>
<path id="Vector_2" d="M8 4.5V12.5" stroke="white" stroke-width="1.5" stroke-linecap="round" stroke-linejoin="round"/>
<path id="Vector_3" d="M9.99992 15.1667H5.99992C2.66659 15.1667 1.33325 13.8334 1.33325 10.5V6.50004C1.33325 3.16671 2.66659 1.83337 5.99992 1.83337H9.99992C13.3333 1.83337 14.6666 3.16671 14.6666 6.50004V10.5C14.6666 13.8334 13.3333 15.1667 9.99992 15.1667Z" stroke="white" stroke-width="1.5" stroke-linecap="round" stroke-linejoin="round"/>
</g>
</g>
</svg>
