<svg width="24" height="19" viewBox="0 0 24 19" fill="none" xmlns="http://www.w3.org/2000/svg">
<path d="M23.5312 6.41309C23.7188 6.27246 24 6.41309 24 6.64746V16.21C24 17.4756 22.9688 18.46 21.75 18.46H2.25C0.984375 18.46 0 17.4756 0 16.21V6.64746C0 6.41309 0.234375 6.27246 0.421875 6.41309C1.5 7.25684 2.85938 8.28809 7.64062 11.7568C8.625 12.46 10.3125 14.0068 12 14.0068C13.6406 14.0068 15.375 12.46 16.3125 11.7568C21.0938 8.28809 22.4531 7.25684 23.5312 6.41309ZM12 12.46C10.875 12.5068 9.32812 11.1006 8.53125 10.5381C2.29688 6.03809 1.82812 5.61621 0.421875 4.49121C0.140625 4.30371 0 3.97559 0 3.60059V2.70996C0 1.49121 0.984375 0.459961 2.25 0.459961H21.75C22.9688 0.459961 24 1.49121 24 2.70996V3.60059C24 3.97559 23.8125 4.30371 23.5312 4.49121C22.125 5.61621 21.6562 6.03809 15.4219 10.5381C14.625 11.1006 13.0781 12.5068 12 12.46Z" fill="#ADADAD"/>
</svg>
