<svg width="60" height="60" viewBox="0 0 60 60" fill="none" xmlns="http://www.w3.org/2000/svg">
<rect x="0.5" y="0.5" width="59" height="59" rx="29.5" fill="#F9FAFB"/>
<rect x="0.5" y="0.5" width="59" height="59" rx="29.5" stroke="#E7E6E6"/>
<path fill-rule="evenodd" clip-rule="evenodd" d="M21.0414 16.6667C18.6253 16.6667 16.6667 18.6253 16.6667 21.0413C16.6667 21.9389 16.9428 22.8147 17.4575 23.55L25.518 35.065C25.8318 35.5132 26.0001 36.0471 26.0001 36.5942V39.5425C26.0001 42.2753 28.876 44.0528 31.3204 42.8306C32.9627 42.0094 34.0001 40.3309 34.0001 38.4947V36.5942C34.0001 36.0471 34.1684 35.5132 34.4821 35.065L42.5426 23.55C43.0573 22.8147 43.3334 21.9389 43.3334 21.0413C43.3334 18.6253 41.3748 16.6667 38.9588 16.6667H21.0414ZM31.3334 38.4947C31.3334 39.3208 30.8667 40.076 30.1278 40.4455C29.4565 40.7811 28.6667 40.293 28.6667 39.5425V36.5942C28.6667 35.5 28.3302 34.4322 27.7027 33.5358L19.6422 22.0208C19.4412 21.7337 19.3334 21.3918 19.3334 21.0413C19.3334 20.098 20.0981 19.3334 21.0414 19.3334H38.9588C39.9021 19.3334 40.6667 20.098 40.6667 21.0413C40.6667 21.3918 40.559 21.7337 40.358 22.0208L32.2975 33.5358C31.67 34.4322 31.3334 35.5 31.3334 36.5942V38.4947Z" fill="#8E8E8E"/>
</svg>
