<svg width="20" height="20" viewBox="0 0 20 20" fill="none" xmlns="http://www.w3.org/2000/svg">
<g id="icon / lock" clip-path="url(#clip0_243_19890)">
<g id="icon">
<path d="M10.8337 12.5C10.8337 12.0398 10.4606 11.6667 10.0003 11.6667C9.54009 11.6667 9.16699 12.0398 9.16699 12.5V14.1667C9.16699 14.6269 9.54009 15 10.0003 15C10.4606 15 10.8337 14.6269 10.8337 14.1667V12.5Z" fill="#8E8B8A"/>
<path fill-rule="evenodd" clip-rule="evenodd" d="M15.0003 5.83337C15.0003 3.07195 12.7617 0.833374 10.0003 0.833374C7.2389 0.833374 5.00033 3.07195 5.00033 5.83337V7.50004C3.15938 7.50004 1.66699 8.99242 1.66699 10.8334V15.8334C1.66699 17.6743 3.15938 19.1667 5.00033 19.1667H15.0003C16.8413 19.1667 18.3337 17.6743 18.3337 15.8334V10.8334C18.3337 8.99242 16.8413 7.50004 15.0003 7.50004V5.83337ZM6.66699 5.83337C6.66699 3.99242 8.15938 2.50004 10.0003 2.50004C11.8413 2.50004 13.3337 3.99242 13.3337 5.83337V7.50004H6.66699V5.83337ZM3.33366 10.8334C3.33366 9.9129 4.07985 9.16671 5.00033 9.16671H15.0003C15.9208 9.16671 16.667 9.9129 16.667 10.8334V15.8334C16.667 16.7538 15.9208 17.5 15.0003 17.5H5.00033C4.07985 17.5 3.33366 16.7538 3.33366 15.8334V10.8334Z" fill="#8E8B8A"/>
</g>
</g>
<defs>
<clipPath id="clip0_243_19890">
<rect width="20" height="20" fill="white"/>
</clipPath>
</defs>
</svg>
