<svg width="20" height="14" viewBox="0 0 20 14" fill="none" xmlns="http://www.w3.org/2000/svg">
<g id="Mastercard">
<path id="Left" fill-rule="evenodd" clip-rule="evenodd" d="M9.9999 11.6698C8.94074 12.5836 7.56685 13.1353 6.06557 13.1353C2.71565 13.1353 0 10.3884 0 7.00002C0 3.6116 2.71565 0.864746 6.06557 0.864746C7.56685 0.864746 8.94074 1.41643 9.9999 2.3303C11.0591 1.41643 12.4329 0.864746 13.9342 0.864746C17.2841 0.864746 19.9998 3.6116 19.9998 7.00002C19.9998 10.3884 17.2841 13.1353 13.9342 13.1353C12.4329 13.1353 11.0591 12.5836 9.9999 11.6698Z" fill="#ED0006"/>
<path id="Right" fill-rule="evenodd" clip-rule="evenodd" d="M10 11.6698C11.3042 10.5444 12.1312 8.86992 12.1312 7.00002C12.1312 5.13013 11.3042 3.45562 10 2.3303C11.0592 1.41643 12.4331 0.864746 13.9343 0.864746C17.2843 0.864746 19.9999 3.6116 19.9999 7.00002C19.9999 10.3884 17.2843 13.1353 13.9343 13.1353C12.4331 13.1353 11.0592 12.5836 10 11.6698Z" fill="#F9A000"/>
<path id="Middle" fill-rule="evenodd" clip-rule="evenodd" d="M9.99941 11.6697C11.3036 10.5444 12.1307 8.86991 12.1307 7.00002C12.1307 5.13013 11.3036 3.45562 9.99941 2.33029C8.69518 3.45562 7.86816 5.13013 7.86816 7.00002C7.86816 8.86991 8.69518 10.5444 9.99941 11.6697Z" fill="#D13303"/>
</g>
</svg>
