<svg width="32" height="14" viewBox="0 0 32 14" fill="none" xmlns="http://www.w3.org/2000/svg">
<path id="Shop Pay" d="M18.7131 4.38666C18.7131 6.28195 17.3842 7.63491 15.5272 7.63491H13.7776C13.7582 7.63491 13.7391 7.63873 13.7213 7.64614C13.7034 7.65355 13.6873 7.66442 13.6736 7.6781C13.66 7.69179 13.6492 7.70804 13.6419 7.72591C13.6346 7.74378 13.6308 7.76292 13.6309 7.78224V10.2732C13.6309 10.3122 13.6155 10.3495 13.588 10.3772C13.5606 10.4048 13.5233 10.4204 13.4843 10.4206H12.26C12.2309 10.4204 12.2025 10.4117 12.1783 10.3955C12.1541 10.3793 12.1353 10.3563 12.1241 10.3295C12.1167 10.3119 12.1128 10.293 12.1127 10.2739V1.28502C12.1126 1.26571 12.1163 1.24656 12.1236 1.22869C12.131 1.21082 12.1417 1.19458 12.1554 1.18089C12.169 1.1672 12.1852 1.15633 12.203 1.14892C12.2209 1.14151 12.24 1.13769 12.2593 1.13769H15.535C17.3842 1.13556 18.7131 2.48852 18.7131 4.38666ZM17.1863 4.38666C17.1863 3.29703 16.4432 2.50062 15.4353 2.50062H13.7776C13.7582 2.50062 13.7391 2.50444 13.7213 2.51185C13.7034 2.51926 13.6873 2.53013 13.6736 2.54382C13.66 2.55751 13.6492 2.57375 13.6419 2.59162C13.6346 2.60949 13.6308 2.62863 13.6309 2.64795V6.11683C13.6309 6.15571 13.6464 6.19301 13.6739 6.2205C13.7014 6.248 13.7387 6.26344 13.7776 6.26344H15.4353C16.4432 6.27056 17.1863 5.47344 17.1863 4.38666ZM19.0762 8.69607C19.0635 8.4054 19.1236 8.11615 19.2511 7.85463C19.3787 7.59311 19.5696 7.36761 19.8065 7.19863C20.2841 6.83922 21.0307 6.65346 22.1269 6.61503L23.2942 6.57375V6.22928C23.2942 5.53892 22.8316 5.24712 22.0885 5.24712C21.3454 5.24712 20.8742 5.51045 20.766 5.94104C20.7571 5.97132 20.7385 5.99781 20.713 6.01636C20.6875 6.03491 20.6565 6.04447 20.625 6.04352H19.4719C19.4507 6.04411 19.4296 6.04 19.4101 6.0315C19.3907 6.02299 19.3733 6.01031 19.3593 5.99434C19.3453 5.97837 19.335 5.95951 19.3291 5.9391C19.3232 5.91869 19.3219 5.89724 19.3253 5.87627C19.4961 4.85568 20.3453 4.07991 22.1411 4.07991C24.0516 4.07991 24.7413 4.96955 24.7413 6.6677V10.2732C24.741 10.3126 24.725 10.3501 24.697 10.3777C24.669 10.4053 24.6312 10.4207 24.5919 10.4206H23.4295C23.3906 10.4204 23.3533 10.4051 23.3256 10.3778C23.312 10.3642 23.3012 10.348 23.2939 10.3301C23.2865 10.3123 23.2828 10.2932 23.2829 10.2739V10.0042C23.2833 9.98191 23.2769 9.96001 23.2647 9.9414C23.2524 9.92278 23.2348 9.90833 23.2141 9.89993C23.1935 9.89153 23.1708 9.88958 23.149 9.89435C23.1272 9.89911 23.1074 9.91037 23.0921 9.92662C22.7433 10.306 22.1803 10.58 21.2785 10.58C19.9517 10.58 19.0762 9.88962 19.0762 8.69607ZM23.2942 7.91461V7.63491L21.7824 7.71462C20.9859 7.75519 20.5225 8.08614 20.5225 8.64341C20.5225 9.1473 20.9475 9.42629 21.6899 9.42629C22.6985 9.42629 23.2942 8.88183 23.2942 7.91461ZM25.9087 13.145V12.1002C25.9089 12.0783 25.9139 12.0567 25.9234 12.0369C25.9329 12.0172 25.9467 11.9998 25.9636 11.9859C25.9806 11.9721 26.0004 11.9621 26.0217 11.9568C26.0429 11.9514 26.0651 11.9508 26.0866 11.955C26.2646 11.9885 26.4461 12.0055 26.6276 12.0062C26.9396 12.0214 27.2477 11.9315 27.5026 11.7508C27.7575 11.5702 27.9444 11.3093 28.0334 11.0098L28.1088 10.7693C28.1198 10.737 28.1198 10.702 28.1088 10.6697L25.6866 4.44929C25.6778 4.42674 25.6747 4.4024 25.6774 4.37837C25.6801 4.35433 25.6886 4.33131 25.7022 4.31129C25.7158 4.29127 25.7341 4.27485 25.7554 4.26343C25.7767 4.25201 25.8005 4.24594 25.8247 4.24574H26.9991C27.0291 4.24605 27.0584 4.25538 27.083 4.27251C27.1076 4.28965 27.1265 4.3138 27.1372 4.34182L28.7822 8.72881C28.7925 8.75796 28.8116 8.78319 28.8368 8.80104C28.8621 8.81889 28.8922 8.82847 28.9231 8.82847C28.954 8.82847 28.9842 8.81889 29.0094 8.80104C29.0347 8.78319 29.0538 8.75796 29.0641 8.72881L30.4926 4.35392C30.5025 4.32402 30.5216 4.29801 30.5472 4.2796C30.5728 4.2612 30.6035 4.25134 30.635 4.25143H31.85C31.8744 4.25158 31.8983 4.25762 31.9198 4.26902C31.9413 4.28042 31.9597 4.29686 31.9735 4.31693C31.9873 4.33699 31.996 4.36009 31.9989 4.38426C32.0018 4.40842 31.9989 4.43293 31.9902 4.45569L29.3993 11.3636C28.8028 12.9692 27.78 13.3798 26.6539 13.3798C26.4404 13.3855 26.2268 13.3599 26.0204 13.3037C25.9861 13.2946 25.9561 13.2737 25.9356 13.2447C25.9152 13.2157 25.9056 13.1804 25.9087 13.145ZM4.24522 0.619569C2.70211 0.608576 1.21345 1.1893 0.0854908 2.24227C0.0372543 2.28644 0.00718276 2.34698 0.00113042 2.4121C-0.00492191 2.47722 0.013478 2.54227 0.0527482 2.59457L0.751018 3.54826C0.773655 3.58002 0.802975 3.60642 0.836917 3.62563C0.870858 3.64483 0.908596 3.65637 0.947474 3.65942C0.986353 3.66247 1.02543 3.65697 1.06195 3.6433C1.09848 3.62963 1.13156 3.60812 1.15888 3.58029C1.56446 3.17485 2.0468 2.85431 2.5777 2.63741C3.10861 2.4205 3.67742 2.31158 4.25091 2.317C6.64539 2.317 7.89601 4.11906 7.89601 5.89833C7.89601 7.83277 6.58204 9.19356 4.69365 9.22061C3.23447 9.22061 2.13475 8.25339 2.13475 6.97587C2.13627 6.65312 2.20939 6.33474 2.34885 6.04367C2.48831 5.7526 2.69062 5.49611 2.94121 5.29267C2.99418 5.24842 3.02767 5.18515 3.03446 5.11647C3.04125 5.04779 3.0208 4.97918 2.97751 4.92542L2.24365 3.99878C2.22146 3.97075 2.19387 3.94746 2.16253 3.93027C2.13119 3.91308 2.09671 3.90235 2.06115 3.8987C2.02559 3.89505 1.98966 3.89856 1.95547 3.90903C1.92129 3.91949 1.88955 3.9367 1.86213 3.95963C1.41143 4.32271 1.04773 4.78205 0.797701 5.30397C0.547671 5.82589 0.417655 6.39716 0.417187 6.97587C0.417187 9.17506 2.28636 10.9002 4.68083 10.9145H4.71286C7.55577 10.8775 9.61143 8.77223 9.61143 5.89478C9.61143 3.33973 7.72945 0.619569 4.24593 0.619569H4.24522Z" fill="#5A31F4"/>
</svg>
