<svg width="33" height="32" viewBox="0 0 33 32" fill="none" xmlns="http://www.w3.org/2000/svg">
<g id="shopping cart">
<path id="Icon" d="M4.04541 5.33333H4.85383C6.21466 5.33333 7.35719 6.358 7.50477 7.7108L8.58605 17.6225C8.73363 18.9753 9.87616 20 11.237 20H22.7734C23.9924 20 25.0562 19.1734 25.3574 17.9923L27.1973 10.7775C27.6273 9.09138 26.3534 7.45185 24.6134 7.45185H8.84541M8.87842 24.8332H9.87842M8.87842 25.8332H9.87842M23.5451 24.8332H24.5451M23.5451 25.8332H24.5451M10.7121 25.3333C10.7121 26.0697 10.1151 26.6667 9.37874 26.6667C8.64236 26.6667 8.04541 26.0697 8.04541 25.3333C8.04541 24.5969 8.64236 24 9.37874 24C10.1151 24 10.7121 24.5969 10.7121 25.3333ZM25.3787 25.3333C25.3787 26.0697 24.7818 26.6667 24.0454 26.6667C23.309 26.6667 22.7121 26.0697 22.7121 25.3333C22.7121 24.5969 23.309 24 24.0454 24C24.7818 24 25.3787 24.5969 25.3787 25.3333Z" stroke="#3B3C3D" stroke-width="1.5" stroke-linecap="round"/>
</g>
</svg>
