<svg width="25" height="25" viewBox="0 0 25 25" fill="none" xmlns="http://www.w3.org/2000/svg">
<g id="bx:bxs-star">
<path id="Vector" d="M22.6 9.4523C22.5353 9.26166 22.4161 9.09414 22.2573 8.97044C22.0985 8.84673 21.9069 8.77225 21.7062 8.75619L15.8355 8.2897L13.2951 2.66617C13.2142 2.48505 13.0826 2.33121 12.9162 2.22323C12.7498 2.11524 12.5557 2.05773 12.3573 2.05762C12.1589 2.05751 11.9648 2.11481 11.7983 2.22262C11.6317 2.33042 11.5 2.48411 11.4189 2.66514L8.87844 8.2897L3.00776 8.75619C2.81052 8.77181 2.62195 8.84393 2.46462 8.96392C2.30729 9.08391 2.18786 9.24668 2.12062 9.43277C2.05337 9.61886 2.04117 9.82038 2.08545 10.0132C2.12974 10.2061 2.22865 10.3821 2.37034 10.5202L6.70873 14.7494L5.17438 21.3934C5.12779 21.5945 5.14273 21.805 5.21724 21.9975C5.29176 22.19 5.42242 22.3557 5.59226 22.4731C5.76211 22.5904 5.9633 22.654 6.16973 22.6556C6.37617 22.6571 6.5783 22.5966 6.74992 22.4819L12.357 18.7438L17.964 22.4819C18.1394 22.5983 18.3463 22.6583 18.5568 22.6537C18.7673 22.6491 18.9713 22.5801 19.1415 22.4561C19.3116 22.332 19.4396 22.1589 19.5084 21.9599C19.5772 21.7609 19.5834 21.5456 19.5262 21.343L17.6427 14.7525L22.3137 10.549C22.6196 10.273 22.7318 9.84258 22.6 9.4523Z" fill="#F2A73B"/>
</g>
</svg>
