<svg width="25" height="25" viewBox="0 0 25 25" fill="none" xmlns="http://www.w3.org/2000/svg">
<g id="bx:bx-star">
<path id="Vector" d="M6.99589 14.7494L5.46155 21.3934C5.41403 21.5946 5.4283 21.8054 5.50247 21.9984C5.57665 22.1913 5.70729 22.3574 5.87733 22.475C6.04737 22.5925 6.24891 22.6561 6.45563 22.6573C6.66234 22.6585 6.86462 22.5974 7.03605 22.4819L12.6431 18.7438L18.2502 22.4819C18.4256 22.5983 18.6324 22.6583 18.8429 22.6537C19.0534 22.649 19.2575 22.5801 19.4276 22.456C19.5977 22.332 19.7258 22.1588 19.7946 21.9598C19.8633 21.7608 19.8695 21.5456 19.8123 21.3429L17.9289 14.7525L22.5999 10.549C22.7495 10.4143 22.8563 10.2387 22.9072 10.0439C22.958 9.84911 22.9507 9.64369 22.886 9.45304C22.8214 9.26239 22.7023 9.09487 22.5434 8.9712C22.3846 8.84752 22.193 8.77312 21.9923 8.75719L16.1216 8.28968L13.5812 2.66615C13.5002 2.48507 13.3685 2.3313 13.2021 2.22341C13.0356 2.11552 12.8415 2.05811 12.6431 2.05811C12.4447 2.05811 12.2506 2.11552 12.0841 2.22341C11.9177 2.3313 11.786 2.48507 11.705 2.66615L9.16457 8.28968L3.2939 8.75616C3.09665 8.77179 2.90808 8.84391 2.75075 8.96389C2.59342 9.08388 2.47399 9.24666 2.40675 9.43274C2.33951 9.61883 2.3273 9.82035 2.37159 10.0132C2.41587 10.206 2.51478 10.382 2.65647 10.5201L6.99589 14.7494ZM9.9338 10.2946C10.1176 10.2801 10.2941 10.2165 10.4449 10.1103C10.5956 10.0041 10.715 9.85937 10.7906 9.69118L12.6431 5.5917L14.4956 9.69118C14.5712 9.85937 14.6906 10.0041 14.8413 10.1103C14.9921 10.2165 15.1686 10.2801 15.3524 10.2946L19.4426 10.619L16.0743 13.6506C15.7818 13.9142 15.6655 14.32 15.7726 14.6989L17.0628 19.2144L13.2157 16.6493C13.0468 16.5359 12.848 16.4754 12.6447 16.4754C12.4413 16.4754 12.2425 16.5359 12.0736 16.6493L8.05346 19.3298L9.13471 14.6485C9.17435 14.4763 9.16903 14.2968 9.11926 14.1273C9.06948 13.9578 8.97693 13.8039 8.85049 13.6805L5.72208 10.6303L9.9338 10.2946Z" fill="#F2A73B"/>
</g>
</svg>
