<svg width="32" height="12" viewBox="0 0 32 12" fill="none" xmlns="http://www.w3.org/2000/svg">
<g id="Vector">
<path d="M13.8666 11.0281H11.2744L12.8958 1.00415H15.4878L13.8666 11.0281Z" fill="#00579F"/>
<path d="M23.2625 1.24927C22.7512 1.04645 21.9403 0.82251 20.9375 0.82251C18.3777 0.82251 16.575 2.1874 16.564 4.13878C16.5427 5.5785 17.8546 6.37816 18.8358 6.85821C19.8387 7.34875 20.1796 7.66892 20.1796 8.10617C20.1694 8.7777 19.3692 9.08725 18.6229 9.08725C17.588 9.08725 17.0335 8.92766 16.1908 8.55405L15.8494 8.39389L15.4867 10.644C16.0947 10.921 17.2148 11.1668 18.3777 11.1775C21.0976 11.1775 22.8683 9.83375 22.8893 7.75425C22.8996 6.61315 22.2069 5.7388 20.7134 5.02433C19.8068 4.56568 19.2516 4.25642 19.2516 3.78714C19.2622 3.36052 19.7212 2.92356 20.7446 2.92356C21.5873 2.90216 22.2065 3.10469 22.6755 3.30737L22.91 3.41381L23.2625 1.24927Z" fill="#00579F"/>
<path d="M26.7091 7.47695C26.9225 6.90109 27.744 4.67234 27.744 4.67234C27.7332 4.69374 27.957 4.08585 28.085 3.71267L28.2662 4.57639C28.2662 4.57639 28.7571 6.97578 28.8637 7.47695C28.4585 7.47695 27.2211 7.47695 26.7091 7.47695ZM29.9088 1.00415H27.9037C27.2854 1.00415 26.8157 1.18528 26.5489 1.83584L22.6986 11.0279H25.4184C25.4184 11.0279 25.8662 9.79074 25.9625 9.52428C26.2609 9.52428 28.9067 9.52428 29.2906 9.52428C29.365 9.87621 29.5999 11.0279 29.5999 11.0279H32L29.9088 1.00415Z" fill="#00579F"/>
<path d="M9.10909 1.00415L6.5705 7.8395L6.29309 6.45322C5.82376 4.85362 4.35184 3.11569 2.70924 2.25154L5.0345 11.0174H7.77565L11.8501 1.00415H9.10909Z" fill="#00579F"/>
<path d="M4.21322 1.00415H0.0426664L0 1.20671C3.25329 2.03864 5.40788 4.04396 6.2931 6.45427L5.38647 1.84685C5.23721 1.20657 4.77851 1.02527 4.21322 1.00415Z" fill="#FAA61A"/>
</g>
</svg>
