<svg width="17" height="16" viewBox="0 0 17 16" fill="none" xmlns="http://www.w3.org/2000/svg">
<g id="vuesax/linear/shopping-cart">
<g id="shopping-cart">
<path id="Vector" d="M1.83325 1.33337H2.99326C3.71326 1.33337 4.27992 1.95337 4.21992 2.66671L3.66659 9.3067C3.57325 10.3934 4.43325 11.3267 5.52658 11.3267H12.6266C13.5866 11.3267 14.4266 10.54 14.4999 9.58671L14.8599 4.58671C14.9399 3.48004 14.0999 2.58004 12.9866 2.58004H4.37992" stroke="white" stroke-width="1.5" stroke-miterlimit="10" stroke-linecap="round" stroke-linejoin="round"/>
<path id="Vector_2" d="M11.3333 14.6667C11.7936 14.6667 12.1667 14.2936 12.1667 13.8333C12.1667 13.3731 11.7936 13 11.3333 13C10.8731 13 10.5 13.3731 10.5 13.8333C10.5 14.2936 10.8731 14.6667 11.3333 14.6667Z" stroke="white" stroke-width="1.5" stroke-miterlimit="10" stroke-linecap="round" stroke-linejoin="round"/>
<path id="Vector_3" d="M6.00008 14.6667C6.46032 14.6667 6.83342 14.2936 6.83342 13.8333C6.83342 13.3731 6.46032 13 6.00008 13C5.53984 13 5.16675 13.3731 5.16675 13.8333C5.16675 14.2936 5.53984 14.6667 6.00008 14.6667Z" stroke="white" stroke-width="1.5" stroke-miterlimit="10" stroke-linecap="round" stroke-linejoin="round"/>
<path id="Vector_4" d="M6.5 5.33337H14.5" stroke="white" stroke-width="1.5" stroke-miterlimit="10" stroke-linecap="round" stroke-linejoin="round"/>
</g>
</g>
</svg>
